<svg width="309" height="309" viewBox="0 0 309 309" fill="none" xmlns="http://www.w3.org/2000/svg">
<mask id="mask0_1550_293" style="mask-type:luminance" maskUnits="userSpaceOnUse" x="122" y="122" width="62" height="62">
<path d="M122.542 122.664H183.461V183.583H122.542V122.664Z" fill="white"/>
</mask>
<g mask="url(#mask0_1550_293)">
<path d="M153.001 183.583C136.173 183.583 122.542 169.856 122.542 153.124C122.542 136.388 136.173 122.664 153.001 122.664C169.829 122.664 183.461 136.296 183.461 153.124C183.461 169.951 169.737 183.583 153.001 183.583ZM153.001 124.545C137.209 124.545 124.422 137.328 124.422 153.124C124.422 168.915 137.209 181.703 153.001 181.703C168.797 181.703 181.584 168.915 181.584 153.124C181.584 137.328 168.701 124.545 153.001 124.545Z" fill="#FF6464"/>
</g>
<mask id="mask1_1550_293" style="mask-type:luminance" maskUnits="userSpaceOnUse" x="0" y="0" width="309" height="309">
<path d="M0 0H309V309H0V0Z" fill="white"/>
</mask>
<g mask="url(#mask1_1550_293)">
<path d="M154.5 309C69.1458 309 0 239.38 0 154.5C0 69.6198 69.1458 0 154.5 0C239.858 0 309 69.142 309 154.5C309 239.858 239.38 309 154.5 309ZM154.5 9.53774C74.3906 9.53774 9.53774 74.3868 9.53774 154.5C9.53774 234.609 74.3906 299.462 154.5 299.462C234.613 299.462 299.462 234.609 299.462 154.5C299.462 74.3868 234.135 9.53774 154.5 9.53774Z" fill="#FF6464"/>
</g>
<mask id="mask2_1550_293" style="mask-type:luminance" maskUnits="userSpaceOnUse" x="0" y="0" width="309" height="309">
<path d="M0 0H309V309H0V0Z" fill="white"/>
</mask>
<g mask="url(#mask2_1550_293)">
<path d="M154.5 309C69.1458 309 0 239.38 0 154.5C0 69.6198 69.1458 0 154.5 0C239.858 0 309 69.142 309 154.5C309 239.858 239.38 309 154.5 309ZM154.5 9.53774C74.3906 9.53774 9.53774 74.3868 9.53774 154.5C9.53774 234.609 74.3906 299.462 154.5 299.462C234.613 299.462 299.462 234.609 299.462 154.5C299.462 74.3868 234.135 9.53774 154.5 9.53774Z" fill="#FF6464"/>
</g>
<mask id="mask3_1550_293" style="mask-type:luminance" maskUnits="userSpaceOnUse" x="120" y="120" width="66" height="66">
<path d="M124.308 122.426H122.308V124.426V181.675V183.675H124.308H181.557H183.557V181.675V124.426V122.426H181.557H124.308Z" fill="white" stroke="white" stroke-width="4"/>
</mask>
<g mask="url(#mask3_1550_293)">
<path d="M122.308 153.05C122.308 169.878 136.009 183.675 152.932 183.675C169.756 183.675 183.557 169.974 183.557 153.05C183.557 136.131 169.852 122.426 152.932 122.426C136.009 122.426 122.308 136.223 122.308 153.05ZM128.074 153.05C128.074 139.311 139.193 128.192 152.932 128.192C166.584 128.192 177.787 139.315 177.787 153.05C177.787 166.79 166.667 177.909 152.932 177.909C139.193 177.909 128.074 166.79 128.074 153.05Z" fill="#FF6464" stroke="#FF6464" stroke-width="4"/>
</g>
<mask id="mask4_1550_293" style="mask-type:luminance" maskUnits="userSpaceOnUse" x="56" y="51" width="76" height="91">
<path d="M56.5156 51.1895H131.87V141.223H56.5156V51.1895Z" fill="white"/>
</mask>
<g mask="url(#mask4_1550_293)">
<mask id="mask5_1550_293" style="mask-type:luminance" maskUnits="userSpaceOnUse" x="44" y="40" width="95" height="105">
<path d="M44.6611 60.899L112.802 40.2715L138.108 123.867L69.9639 144.495L44.6611 60.899Z" fill="white"/>
</mask>
<g mask="url(#mask5_1550_293)">
<mask id="mask6_1550_293" style="mask-type:luminance" maskUnits="userSpaceOnUse" x="44" y="40" width="95" height="105">
<path d="M44.6611 60.899L112.802 40.2715L138.108 123.867L69.9639 144.495L44.6611 60.899Z" fill="white"/>
</mask>
<g mask="url(#mask6_1550_293)">
<path d="M131.235 105.648C131.739 107.51 130.761 109.456 128.96 110.171C128.857 110.209 128.758 110.243 128.654 110.278C126.934 110.798 125.061 110.041 124.201 108.435C113.13 87.758 103.225 90.3384 89.5133 93.9088C79.8838 96.4166 71.2482 95.545 65.2006 91.4508C60.426 88.2168 57.4863 83.1516 56.7027 76.8021C55.9458 70.678 57.7195 65.0586 61.8328 60.5439C67.0202 54.8519 75.4112 51.5949 84.2799 51.8357C116.555 52.7035 130.65 103.485 131.235 105.648ZM118.019 110.534C116.67 109.941 84.7845 96.2178 70.7168 112.648C66.7794 117.251 64.9101 123.13 65.7243 128.371C66.3857 132.622 68.6908 136.085 72.3988 138.379C76.2254 140.745 80.3234 141.364 84.2417 140.172C84.4749 140.103 84.7004 140.026 84.9298 139.942C89.4942 138.291 93.4392 134.204 96.096 128.348C99.6971 120.404 102.075 115.156 115.768 117.74C117.672 118.099 119.541 116.979 120.118 115.133C120.692 113.29 119.789 111.31 118.019 110.534Z" fill="#FF6464"/>
</g>
</g>
</g>
<mask id="mask7_1550_293" style="mask-type:luminance" maskUnits="userSpaceOnUse" x="139" y="37" width="90" height="82">
<path d="M139.698 37.4893H228.753V118.715H139.698V37.4893Z" fill="white"/>
</mask>
<g mask="url(#mask7_1550_293)">
<mask id="mask8_1550_293" style="mask-type:luminance" maskUnits="userSpaceOnUse" x="134" y="23" width="112" height="106">
<path d="M208.874 23.5322L245.24 83.8819L171.06 128.581L134.694 68.2316L208.874 23.5322Z" fill="white"/>
</mask>
<g mask="url(#mask8_1550_293)">
<mask id="mask9_1550_293" style="mask-type:luminance" maskUnits="userSpaceOnUse" x="134" y="23" width="112" height="106">
<path d="M208.874 23.5322L245.24 83.8819L171.06 128.581L134.694 68.2316L208.874 23.5322Z" fill="white"/>
</mask>
<g mask="url(#mask9_1550_293)">
<path d="M186.897 117.537C185.231 118.478 183.124 118.011 182 116.459C181.939 116.371 181.878 116.284 181.825 116.196C180.907 114.67 181.179 112.686 182.513 111.471C199.692 95.7937 194.81 86.9211 188.048 74.6386C183.3 66.0068 182.043 57.5089 184.504 50.7044C186.454 45.3334 190.605 41.2737 196.515 38.9724C202.219 36.7514 208.052 37.0801 213.385 39.9243C220.113 43.5138 225.282 50.7694 227.204 59.3361C234.208 90.5221 188.836 116.448 186.897 117.537ZM178.996 106.05C179.237 104.609 184.68 70.6629 165.475 61.1787C160.096 58.5219 153.995 58.1664 149.155 60.2268C145.233 61.8974 142.466 64.9556 141.162 69.0765C139.817 73.3236 140.214 77.4063 142.317 80.8773C142.439 81.0837 142.565 81.2825 142.699 81.4813C145.398 85.457 150.283 88.2437 156.556 89.3638C165.062 90.8776 170.681 91.8792 171.522 105.653C171.641 107.564 173.17 109.085 175.085 109.189C176.997 109.288 178.679 107.939 178.996 106.05Z" fill="#FF6464"/>
</g>
</g>
</g>
<mask id="mask10_1550_293" style="mask-type:luminance" maskUnits="userSpaceOnUse" x="197" y="106" width="85" height="84">
<path d="M197.437 106.972H281.599V189.176H197.437V106.972Z" fill="white"/>
</mask>
<g mask="url(#mask10_1550_293)">
<mask id="mask11_1550_293" style="mask-type:luminance" maskUnits="userSpaceOnUse" x="183" y="101" width="112" height="109">
<path d="M294.657 152.451L253.035 209.306L183.151 158.143L224.773 101.291L294.657 152.451Z" fill="white"/>
</mask>
<g mask="url(#mask11_1550_293)">
<mask id="mask12_1550_293" style="mask-type:luminance" maskUnits="userSpaceOnUse" x="183" y="101" width="112" height="109">
<path d="M294.657 152.451L253.035 209.306L183.151 158.143L224.773 101.291L294.657 152.451Z" fill="white"/>
</mask>
<g mask="url(#mask12_1550_293)">
<path d="M199.456 168.488C197.946 167.31 197.56 165.188 198.561 163.552C198.615 163.461 198.676 163.373 198.737 163.289C199.788 161.851 201.723 161.335 203.362 162.1C224.453 171.89 230.752 163.958 239.472 152.979C245.6 145.264 252.955 140.822 260.18 140.467C265.887 140.188 271.235 142.451 275.639 147.015C279.89 151.419 281.84 156.924 281.278 162.941C280.567 170.537 275.868 178.106 268.708 183.186C242.649 201.692 201.21 169.852 199.456 168.488ZM207.002 156.759C208.424 156.427 241.838 148.338 243.173 126.961C243.543 120.971 241.517 115.206 237.744 111.54C234.69 108.562 230.798 107.197 226.494 107.584C222.056 107.981 218.443 109.927 216.054 113.203C215.913 113.398 215.779 113.593 215.645 113.792C213.019 117.813 212.334 123.398 213.726 129.618C215.614 138.047 216.861 143.621 204.483 149.714C202.762 150.559 201.952 152.562 202.598 154.366C203.24 156.167 205.136 157.199 207.002 156.759Z" fill="#FF6464"/>
</g>
</g>
</g>
<mask id="mask13_1550_293" style="mask-type:luminance" maskUnits="userSpaceOnUse" x="149" y="190" width="72" height="85">
<path d="M149.484 190.154H220.923V274.316H149.484V190.154Z" fill="white"/>
</mask>
<g mask="url(#mask13_1550_293)">
<mask id="mask14_1550_293" style="mask-type:luminance" maskUnits="userSpaceOnUse" x="139" y="181" width="84" height="99">
<path d="M208.576 279.06L139.086 267.409L153.406 181.993L222.9 193.645L208.576 279.06Z" fill="white"/>
</mask>
<g mask="url(#mask14_1550_293)">
<mask id="mask15_1550_293" style="mask-type:luminance" maskUnits="userSpaceOnUse" x="139" y="181" width="84" height="99">
<path d="M208.576 279.06L139.086 267.409L153.406 181.993L222.9 193.645L208.576 279.06Z" fill="white"/>
</mask>
<g mask="url(#mask15_1550_293)">
<path d="M151.491 201.206C151.862 199.329 153.586 198.03 155.497 198.19C155.604 198.198 155.708 198.213 155.811 198.228C157.569 198.523 158.896 200.017 158.953 201.825C159.676 225.068 169.592 227.136 183.319 229.995C192.964 232.006 200.235 236.578 203.798 242.874C206.611 247.851 206.99 253.643 204.891 259.629C202.869 265.405 198.824 269.618 193.194 271.82C186.091 274.595 177.218 273.796 169.462 269.683C141.223 254.709 151.059 203.385 151.491 201.206ZM165.356 202.678C166.293 203.802 188.53 230.022 208.228 221.612C213.745 219.253 217.984 214.853 219.57 209.838C220.855 205.771 220.327 201.68 218.049 198.01C215.698 194.222 212.342 191.871 208.339 191.206C208.102 191.164 207.869 191.133 207.628 191.107C202.857 190.564 197.559 192.464 192.628 196.497C185.942 201.971 181.526 205.587 170.521 197.265C168.992 196.11 166.84 196.283 165.521 197.67C164.198 199.054 164.125 201.21 165.356 202.678Z" fill="#FF6464"/>
</g>
</g>
</g>
<mask id="mask16_1550_293" style="mask-type:luminance" maskUnits="userSpaceOnUse" x="37" y="163" width="89" height="71">
<path d="M37.9211 163.731H125.997V233.214H37.9211V163.731Z" fill="white"/>
</mask>
<g mask="url(#mask16_1550_293)">
<mask id="mask17_1550_293" style="mask-type:luminance" maskUnits="userSpaceOnUse" x="32" y="161" width="95" height="80">
<path d="M40.9528 240.89L32.9595 170.884L119.009 161.06L126.999 231.065L40.9528 240.89Z" fill="white"/>
</mask>
<g mask="url(#mask17_1550_293)">
<mask id="mask18_1550_293" style="mask-type:luminance" maskUnits="userSpaceOnUse" x="32" y="161" width="95" height="80">
<path d="M40.9528 240.89L32.9595 170.884L119.009 161.06L126.999 231.065L40.9528 240.89Z" fill="white"/>
</mask>
<g mask="url(#mask18_1550_293)">
<path d="M100.01 164.523C101.918 164.363 103.642 165.662 104.02 167.539C104.039 167.646 104.055 167.75 104.066 167.853C104.269 169.623 103.198 171.312 101.478 171.867C79.3368 178.981 80.0937 189.084 81.1335 203.064C81.8674 212.889 79.4782 221.142 74.4131 226.303C70.4069 230.381 64.9442 232.346 58.6099 231.983C52.5011 231.635 47.3328 228.91 43.6629 224.108C39.0336 218.045 37.3516 209.299 39.1636 200.709C45.754 169.432 97.8006 164.71 100.01 164.523ZM102.426 178.258C101.608 179.466 82.5479 208.083 96.0728 224.689C99.8611 229.342 105.259 232.201 110.519 232.339C114.785 232.449 118.57 230.813 121.467 227.61C124.457 224.307 125.791 220.427 125.324 216.398C125.298 216.161 125.263 215.924 125.225 215.691C124.426 210.95 121.138 206.386 115.901 202.762C108.791 197.846 104.097 194.601 109.055 181.726C109.747 179.936 108.982 177.918 107.289 177.027C105.591 176.14 103.5 176.668 102.426 178.258Z" fill="#FF6464"/>
</g>
</g>
</g>
</svg>
